<svg width="68" height="67" viewBox="0 0 68 67" fill="none" xmlns="http://www.w3.org/2000/svg">
<path d="M42.2381 23.5958C42.0343 23.1124 41.9824 22.5813 42.089 22.0693C42.1956 21.5573 42.4558 21.0874 42.8369 20.7187C43.2174 20.3507 43.7021 20.1008 44.2293 20.001C44.7565 19.9012 45.3024 19.9558 45.7975 20.1581C46.2931 20.3612 46.7156 20.7024 47.0115 21.1385C47.3074 21.5747 47.4635 22.0863 47.4599 22.6085C47.4491 23.3042 47.1586 23.9682 46.6504 24.4588C46.1422 24.9494 45.4566 25.2277 44.7399 25.2343C44.2026 25.2324 43.678 25.0757 43.2326 24.784C42.7873 24.4922 42.4411 24.0787 42.2381 23.5958ZM23.4731 37.5101C22.6559 35.5891 22.4432 33.4762 22.8619 31.438C23.2806 29.3998 24.312 27.5277 25.8257 26.058C27.3381 24.5899 29.2656 23.591 31.3636 23.1881C33.4617 22.7851 35.6358 22.9963 37.61 23.7948C39.5854 24.5947 41.2721 25.9453 42.4568 27.6758C43.6415 29.4062 44.2711 31.4389 44.2659 33.5167C44.2355 39.3033 39.4105 43.9835 33.459 44.0012C29.0867 44.0012 25.1447 41.4395 23.4731 37.5101ZM50.2926 21.9563C49.1741 18.695 46.2592 16.7539 42.639 16.75H24.3449C23.4194 16.748 22.4992 16.8849 21.6168 17.1559C18.2797 18.2427 16.259 21.0537 16.2519 24.5456C16.2347 30.5145 16.2347 36.4805 16.2519 42.4435C16.2174 43.6887 16.5014 44.9228 17.0785 46.0355C17.6555 47.1481 18.5076 48.1046 19.5585 48.8193C20.957 49.7918 22.6447 50.2935 24.3642 50.248H42.5832C43.5386 50.2699 44.4908 50.1313 45.3976 49.8381C48.7164 48.6892 50.733 45.9137 50.7361 42.4149C50.7361 36.4618 50.7584 30.5096 50.7361 24.5574C50.7284 23.6733 50.5788 22.7957 50.2926 21.9563Z" fill="white"/>
<path d="M55.1023 43.6229C55.0759 43.7677 55.0607 43.9155 55.0231 44.0593C54.738 45.1392 54.603 46.2772 54.1341 47.2911C52.0332 51.7702 48.4221 54.1694 43.4012 54.2364C37.1411 54.3251 30.878 54.262 24.6149 54.2552C22.2295 54.288 19.8965 53.5746 17.9611 52.2205C14.6067 49.8627 12.925 46.6201 12.9138 42.5647C12.8966 36.5021 12.8966 30.4416 12.9138 24.3811C12.9057 23.5978 12.9818 22.8164 13.1391 22.0489C14.1865 17.3392 17.0943 14.334 21.8076 13.0404C22.4237 12.8699 23.0722 12.8108 23.6842 12.6955H44.2872C44.7186 12.7664 45.157 12.8108 45.5813 12.9024C50.3616 13.9646 53.4287 16.814 54.7379 21.4685C54.9105 22.0745 54.9714 22.71 55.083 23.317L55.1023 43.6229ZM34.004 3.56781e-07C20.2517 -0.00197023 7.85339 8.15921 2.58998 20.6774C-2.67343 33.1945 0.234331 47.6044 9.95835 57.1854C19.6814 66.7674 34.3054 69.6346 47.0103 64.449C59.7162 59.2654 68 47.0487 68 33.5C68 15.0001 52.7802 0.00197094 34.004 3.56781e-07Z" fill="white"/>
<path d="M33.4925 26.6029C31.6083 26.6029 29.8012 27.3296 28.4689 28.623C27.1365 29.9165 26.388 31.6707 26.388 33.5C26.388 35.3292 27.1365 37.0835 28.4689 38.3769C29.8012 39.6704 31.6083 40.397 33.4925 40.397C35.3767 40.397 37.1838 39.6704 38.5161 38.3769C39.8485 37.0835 40.597 35.3292 40.597 33.5C40.597 31.6707 39.8485 29.9165 38.5161 28.623C37.1838 27.3296 35.3767 26.6029 33.4925 26.6029Z" fill="white"/>
</svg>
